<svg xmlns="http://www.w3.org/2000/svg" viewBox="0 0 304.97 73.75"><defs><style>.cls-1,.cls-2{fill:#fff;}.cls-2{font-size:7.75px;font-family:GloberRegular, Glober;}</style></defs><g id="Warstwa_2" data-name="Warstwa 2"><g id="Main_Webpage" data-name="Main Webpage"><g id="Header"><g id="Main_Logo" data-name="Main Logo"><polygon class="cls-1" points="296.29 14.28 238.97 33.19 243.69 26.39 304.97 0 296.29 14.28"/><polygon class="cls-1" points="241.88 38.88 237.24 44.08 283.91 39.3 272.47 32.91 241.88 38.88"/><polygon class="cls-1" points="257.15 50.82 239.83 48.85 236.96 45.09 270.92 42.57 257.15 50.82"/><polygon class="cls-1" points="238.12 34.63 241.63 37.86 282.36 28.78 293.8 17.45 238.12 34.63"/><polygon class="cls-1" points="8.69 14.28 66 33.19 61.28 26.39 0 0 8.69 14.28"/><polygon class="cls-1" points="63.09 38.88 67.73 44.08 21.06 39.3 32.51 32.91 63.09 38.88"/><polygon class="cls-1" points="47.82 50.82 65.14 48.85 68.01 45.09 34.06 42.57 47.82 50.82"/><polygon class="cls-1" points="66.85 34.63 63.35 37.86 22.61 28.78 11.18 17.45 66.85 34.63"/><text class="cls-2" transform="translate(75.78 71.73)">ON AIR, ON BOARD, ON FREQ</text><path class="cls-1" d="M87.41,33.36H78.75V36h8.66v6H78.75v8.54h-6V27.4H87.41Z"/><path class="cls-1" d="M102.87,42.16l3.06,8.31h-6l-2.51-6.2H95.19v6.2H89.06V27.4h8.22a8.23,8.23,0,0,1,3.29.66,8.54,8.54,0,0,1,4.51,4.49,8.25,8.25,0,0,1,.66,3.28,8.13,8.13,0,0,1-.78,3.55A8.46,8.46,0,0,1,102.87,42.16Zm-5.6-3.85a2.49,2.49,0,0,0,2.47-2.48,2.49,2.49,0,0,0-2.47-2.47H95.19v5Z"/><path class="cls-1" d="M122.21,33.36h-8.66V36h8.66v6h-8.66V44.5h8.66v6H107.55V27.4h14.66Z"/><path class="cls-1" d="M138.54,49.25l5.72,2.86L142,56.69l-13.1-6.55a9,9,0,0,1-3.62-3.28A8.86,8.86,0,0,1,123.86,42V35.87a8.68,8.68,0,0,1,.73-3.55,9.51,9.51,0,0,1,2-2.9,9.62,9.62,0,0,1,2.91-2,9.11,9.11,0,0,1,7.1,0,9.45,9.45,0,0,1,2.9,2,9.14,9.14,0,0,1,1.95,2.9,9,9,0,0,1,.71,3.55V42a8.89,8.89,0,0,1-1,4.09A9,9,0,0,1,138.54,49.25Zm-8.68-13.42V42a3.11,3.11,0,0,0,5.34,2.2,3.06,3.06,0,0,0,.92-2.2V35.83a3.09,3.09,0,0,0-.24-1.22,3.19,3.19,0,0,0-.68-1,3.13,3.13,0,0,0-5.34,2.2Z"/><path class="cls-1" d="M179.49,27.4l-8.17,23.07h-6.1l-4.54-12.82-4.55,12.82H150L141.86,27.4h6.62l4.58,13.41,4.58-13.41h6.07l4.58,13.41,4.55-13.41Z"/><path class="cls-1" d="M190.73,50.47l-.95-3.63h-6.46l-1,3.63h-6.2l6.26-23.07h8.31l6.23,23.07ZM185,40.71h3.17l-1.58-5.86Z"/><path class="cls-1" d="M209.22,27.4h7.22l-8.57,14.17v8.9h-6.79v-8.9l-8.6-14.17h7.22l4.77,8.1Z"/><path class="cls-1" d="M222.44,34.58a1.21,1.21,0,0,0,.72,1.09,9.88,9.88,0,0,0,1.8.72c.73.22,1.51.47,2.37.75a9.34,9.34,0,0,1,2.36,1.13,6.09,6.09,0,0,1,1.81,1.9,5.74,5.74,0,0,1,.72,3,9,9,0,0,1-.43,2.67,7.21,7.21,0,0,1-1.38,2.53A7.59,7.59,0,0,1,228,50.33a8,8,0,0,1-3.65.76,7.78,7.78,0,0,1-3.06-.62,8,8,0,0,1-2.51-1.7,8.3,8.3,0,0,1-1.68-2.52,7.8,7.8,0,0,1-.62-3.07h6a1.9,1.9,0,0,0,.55,1.38,1.81,1.81,0,0,0,1.34.57,2.12,2.12,0,0,0,1.34-.44,1.83,1.83,0,0,0,.59-1.47h0a1.26,1.26,0,0,0-.73-1.11,9.86,9.86,0,0,0-1.81-.76l-2.36-.75A10.09,10.09,0,0,1,219,39.46a6.21,6.21,0,0,1-1.81-1.9,5.6,5.6,0,0,1-.72-3,7.76,7.76,0,0,1,.85-3.85,7.6,7.6,0,0,1,2.08-2.41A7.72,7.72,0,0,1,222,27.08a9.76,9.76,0,0,1,2.35-.34,7.7,7.7,0,0,1,3.08.62,8.1,8.1,0,0,1,2.51,1.69,8,8,0,0,1,1.7,2.48,7.77,7.77,0,0,1,.62,3.08h-6a1.9,1.9,0,0,0-.54-1.35,1.83,1.83,0,0,0-1.36-.56,1.87,1.87,0,0,0-1.37.51A1.82,1.82,0,0,0,222.44,34.58Z"/><polygon class="cls-1" points="117.02 19.83 111.76 8.94 110.66 8.94 110.66 20.98 111.57 20.98 111.57 10.71 116.55 20.98 117.49 20.98 122.28 11.04 122.28 20.98 123.19 20.98 123.19 8.94 122.28 8.94 117.02 19.83"/><path class="cls-1" d="M132.51,10.1a3.85,3.85,0,0,0-2.76-1.16h-3.92V21h3.92a3.72,3.72,0,0,0,1.52-.31,3.78,3.78,0,0,0,1.24-.84,4.07,4.07,0,0,0,.83-1.25,3.72,3.72,0,0,0,.31-1.52V12.87a3.77,3.77,0,0,0-.31-1.53A4.15,4.15,0,0,0,132.51,10.1Zm.23,2.77v4.19a2.88,2.88,0,0,1-.24,1.17,3,3,0,0,1-1.59,1.59,2.8,2.8,0,0,1-1.16.23h-3V9.87h3a2.83,2.83,0,0,1,1.16.24,3,3,0,0,1,1,.64,2.89,2.89,0,0,1,.64.95A2.85,2.85,0,0,1,132.74,12.87Z"/><polygon class="cls-1" points="136.9 20.05 136.9 8.94 135.99 8.94 135.99 20.98 143.82 20.98 143.82 20.05 136.9 20.05"/><path class="cls-1" d="M155.3,14.61a3.78,3.78,0,0,1,.87,1.2,3.46,3.46,0,0,1,.33,1.5,3.6,3.6,0,0,1-.29,1.44,3.83,3.83,0,0,1-.79,1.17,3.7,3.7,0,0,1-1.16.78,3.51,3.51,0,0,1-1.41.28h-5.49V9h4.8a3.74,3.74,0,0,1,1.44.29,4,4,0,0,1,1.2.79,3.91,3.91,0,0,1,.82,1.17,3.57,3.57,0,0,1,.29,1.42A3.39,3.39,0,0,1,155.3,14.61Zm-4.79-2.73V13.4h1.65a.83.83,0,0,0,.57-.22.67.67,0,0,0,0-1.08.83.83,0,0,0-.57-.22ZM152.83,18a.7.7,0,0,0,.53-.23.76.76,0,0,0-.53-1.29h-2.32V18Z"/><path class="cls-1" d="M164.81,12.08H160.3v1.36h4.51v3.1H160.3v1.34h4.51V21h-7.63V9h7.63Z"/><path class="cls-1" d="M173.1,21l-.5-1.88h-3.36L168.72,21H165.5l3.26-12h4.32l3.24,12Zm-3-5.07h1.64l-.82-3.05Z"/><path class="cls-1" d="M179.27,12.72a.62.62,0,0,0,.38.56,4.46,4.46,0,0,0,.94.38l1.23.39a5,5,0,0,1,1.23.59,3.19,3.19,0,0,1,.94,1,3,3,0,0,1,.37,1.58,4.62,4.62,0,0,1-.22,1.39,3.81,3.81,0,0,1-2,2.31,4.06,4.06,0,0,1-1.89.4,4,4,0,0,1-1.6-.33,4,4,0,0,1-1.3-.88,4.25,4.25,0,0,1-.88-1.31,4.12,4.12,0,0,1-.32-1.6h3.12a1,1,0,0,0,.29.72.92.92,0,0,0,.7.3A1.08,1.08,0,0,0,181,18a.94.94,0,0,0,.31-.77h0a.62.62,0,0,0-.38-.57,4.42,4.42,0,0,0-.94-.4l-1.22-.39a5,5,0,0,1-1.23-.59,3.08,3.08,0,0,1-.94-1,2.81,2.81,0,0,1-.38-1.55,4.15,4.15,0,0,1,.44-2,3.93,3.93,0,0,1,1.09-1.25A3.84,3.84,0,0,1,179,8.82a5.13,5.13,0,0,1,1.23-.18,4.08,4.08,0,0,1,1.6.32,4.2,4.2,0,0,1,1.3.88,4,4,0,0,1,.89,1.29,4.09,4.09,0,0,1,.32,1.61h-3.12A1,1,0,0,0,181,12a1,1,0,0,0-.7-.29,1,1,0,0,0-.72.27A.93.93,0,0,0,179.27,12.72Z"/><path class="cls-1" d="M194.31,9v3.1h-3.25V21h-3.12v-8.9h-3.26V9Z"/></g></g></g></g></svg>